<svg width="18" height="17" viewBox="0 0 18 17" fill="none" xmlns="http://www.w3.org/2000/svg">
<path id="Vector" d="M14.3671 10.2271C16.0965 10.2271 17.5023 11.6148 17.5023 13.3219C17.5023 15.028 16.0965 16.4167 14.3671 16.4167C12.6377 16.4167 11.2318 15.028 11.2318 13.3219C11.2318 11.6148 12.6377 10.2271 14.3671 10.2271ZM14.3671 11.6787C13.4485 11.6787 12.7024 12.4151 12.7024 13.3219C12.7024 14.2277 13.4485 14.9651 14.3671 14.9651C15.2857 14.9651 16.0317 14.2277 16.0317 13.3219C16.0317 12.4151 15.2857 11.6787 14.3671 11.6787ZM7.60023 12.5958C8.00611 12.5958 8.33551 12.921 8.33551 13.3216C8.33551 13.7223 8.00611 14.0474 7.60023 14.0474H1.5719C1.16603 14.0474 0.836624 13.7223 0.836624 13.3216C0.836624 12.921 1.16603 12.5958 1.5719 12.5958H7.60023ZM3.97118 0.583374C5.70056 0.583374 7.10642 1.97207 7.10642 3.67818C7.10642 5.38429 5.70056 6.77298 3.97118 6.77298C2.24278 6.77298 0.835938 5.38429 0.835938 3.67818C0.835938 1.97207 2.24278 0.583374 3.97118 0.583374ZM3.97118 2.03497C3.05355 2.03497 2.3065 2.77238 2.3065 3.67818C2.3065 4.58397 3.05355 5.32138 3.97118 5.32138C4.88979 5.32138 5.63585 4.58397 5.63585 3.67818C5.63585 2.77238 4.88979 2.03497 3.97118 2.03497ZM16.7673 2.95257C17.1732 2.95257 17.5026 3.27773 17.5026 3.67837C17.5026 4.07901 17.1732 4.40417 16.7673 4.40417H10.738C10.3321 4.40417 10.0027 4.07901 10.0027 3.67837C10.0027 3.27773 10.3321 2.95257 10.738 2.95257H16.7673Z" fill="white"/>
</svg>
