<svg width="44" height="53" viewBox="0 0 44 53" fill="none" xmlns="http://www.w3.org/2000/svg">
<g id="freepik--Character--inject-46">
<path id="Vector" d="M0.235276 10.5867L19.8894 10.9126L19.6541 25.1014L-4.20633e-06 24.7755L0.235276 10.5867Z" fill="#EA736D"/>
<path id="Vector_2" opacity="0.3" d="M8.02608 10.7141L19.9088 10.9111L19.6735 25.0999L7.79079 24.9029L8.02608 10.7141Z" fill="white"/>
<path id="Vector_3" opacity="0.3" d="M6.23541 11.6698L9.65747 11.7383L9.63839 12.6922L6.21633 12.6237L6.23541 11.6698Z" fill="white"/>
<path id="Vector_4" opacity="0.3" d="M6.13383 22.7035L9.55542 22.7603L9.5396 23.714L6.11801 23.6573L6.13383 22.7035Z" fill="white"/>
<path id="Vector_5" d="M3.85258 19.6686C2.74344 19.6686 1.84431 18.6513 1.84431 17.3963C1.84431 16.1414 2.74344 15.124 3.85258 15.124C4.96171 15.124 5.86084 16.1414 5.86084 17.3963C5.86084 18.6513 4.96171 19.6686 3.85258 19.6686Z" stroke="white" stroke-miterlimit="10"/>
<path id="Vector_6" d="M3.7691 15.4697V15.8513" stroke="white" stroke-linecap="round" stroke-linejoin="round"/>
<path id="Vector_7" d="M3.68225 18.9648V19.3464" stroke="white" stroke-linecap="round" stroke-linejoin="round"/>
<path id="Vector_8" d="M5.54572 17.3213H5.16246" stroke="white" stroke-linecap="round" stroke-linejoin="round"/>
<path id="Vector_9" d="M2.46948 17.3232H2.08623" stroke="white" stroke-linecap="round" stroke-linejoin="round"/>
<path id="Vector_10" d="M3.77087 17.3213L3.76917 16.146" stroke="white" stroke-width="0.5" stroke-linecap="round" stroke-linejoin="round"/>
<path id="Vector_11" d="M3.69586 17.3979L2.86462 18.2292" stroke="white" stroke-width="0.5" stroke-linecap="round" stroke-linejoin="round"/>
<path id="Vector_12" d="M3.58521 17.3229C3.58521 17.3596 3.5961 17.3955 3.6165 17.426C3.6369 17.4566 3.6659 17.4804 3.69983 17.4944C3.73375 17.5085 3.77108 17.5121 3.8071 17.505C3.84311 17.4978 3.8762 17.4801 3.90216 17.4542C3.92813 17.4282 3.94581 17.3951 3.95298 17.3591C3.96014 17.3231 3.95646 17.2858 3.94241 17.2518C3.92836 17.2179 3.90456 17.1889 3.87402 17.1685C3.84349 17.1481 3.8076 17.1372 3.77088 17.1372C3.74643 17.137 3.72218 17.1416 3.69956 17.1509C3.67693 17.1601 3.65637 17.1738 3.63908 17.1911C3.6218 17.2084 3.60813 17.2289 3.59888 17.2516C3.58963 17.2742 3.58498 17.2984 3.58521 17.3229Z" fill="white"/>
<path id="Vector_13" opacity="0.3" d="M3.85259 20.2701C2.38409 20.2701 1.19363 18.9836 1.19363 17.3965C1.19363 15.8095 2.38409 14.5229 3.85259 14.5229C5.32108 14.5229 6.51154 15.8095 6.51154 17.3965C6.51154 18.9836 5.32108 20.2701 3.85259 20.2701Z" fill="white"/>
<path id="Vector_14" d="M25.935 42.3163C25.6386 42.5429 19.6888 41.9024 21.2269 31.3467C21.2269 31.3467 18.4044 32.0638 18.1012 32.0161C18.1012 32.0161 13.9603 38.3645 16.9753 41.509C19.9903 44.6534 24.4837 44.8458 24.4837 44.8458L25.935 42.3163Z" fill="#EA736D"/>
<path id="Vector_15" opacity="0.3" d="M25.935 42.3163C25.6386 42.5429 19.6888 41.9024 21.2269 31.3467C21.2269 31.3467 18.4044 32.0638 18.1012 32.0161C18.1012 32.0161 13.9603 38.3645 16.9753 41.509C19.9903 44.6534 24.4837 44.8458 24.4837 44.8458L25.935 42.3163Z" fill="black"/>
<path id="Vector_16" d="M19.3413 32.9804C19.3259 32.9804 21.0037 33.0128 21.5658 32.3144C22.128 31.616 22.5078 30.3674 21.4858 29.5158C20.4638 28.6641 14.4628 24.9848 11.6369 24.6952C8.81105 24.4057 5.78588 26.2283 5.78588 26.2283L9.48558 28.9639L17.4522 30.8921L19.3413 32.9804Z" fill="#4658BC"/>
<path id="Vector_17" d="M24.7665 40.6541L24.6115 42.1803L22.7787 42.0253L23.0546 40.4565L24.7665 40.6541Z" fill="#FFC3BD"/>
<path id="Vector_18" d="M25.1225 42.0697L22.4635 42.0322L22.2745 43.3745C22.2745 43.3745 24.7648 43.4085 25.7885 43.2723C26.8122 43.136 26.6521 42.6028 26.6521 42.6028C26.6521 42.6028 25.4529 42.6318 25.1225 42.0697Z" fill="#4658BC"/>
<path id="Vector_19" d="M1.9179 45.9329C1.52088 42.0311 3.8765 38.5956 7.17933 38.2596C10.4822 37.9235 13.4815 40.8141 13.8785 44.7159C14.2755 48.6177 11.9199 52.0532 8.61706 52.3893C5.31424 52.7253 2.31492 49.8347 1.9179 45.9329Z" fill="#4658BC"/>
<path id="Vector_20" d="M12.0764 23.6035C12.0764 23.6035 11.8005 29.9349 15.4831 30.1155C19.1658 30.2961 23.1227 29.8924 23.1227 29.8924L21.9627 41.2691L25.4154 41.4821C25.4154 41.4821 27.8938 31.8308 28.2839 29.4052C28.674 26.9796 28.335 25.2643 25.7749 24.1878C23.2147 23.1113 12.0764 23.6035 12.0764 23.6035Z" fill="#EA736D"/>
<path id="Vector_21" d="M32.6855 43.691L28.0983 30.3673L21.9662 23.5981C21.9662 23.5981 27.3181 23.6186 29.8902 25.0971C32.4623 26.5756 32.5577 28.3522 33.0295 30.4661C33.5014 32.58 35.3938 42.5856 35.3938 42.5856L32.6855 43.691Z" fill="#EA736D"/>
<path id="Vector_22" opacity="0.7" d="M12.0764 23.6035C12.0764 23.6035 17.7759 23.3497 21.956 23.6035C21.956 23.6035 27.3079 23.624 29.88 25.1025C32.4521 26.581 32.5577 28.3525 33.0295 30.4664C33.5014 32.5803 35.3938 42.5858 35.3938 42.5858L32.6855 43.6913L28.0983 30.3676C27.3267 34.0605 25.4155 41.4752 25.4155 41.4752L21.9628 41.2691L23.1245 29.8992C23.1245 29.8992 19.1693 30.3029 15.4849 30.1223C11.8005 29.9417 12.0764 23.6035 12.0764 23.6035Z" fill="black"/>
<path id="Vector_23" d="M21.4858 13.334L23.6031 13.5912C23.6031 13.5912 23.971 17.4834 24.3134 18.2397C24.3134 18.2397 30.8254 19.1339 33.4928 19.0573L34.847 19.9771L34.8947 21.5766L33.5678 21.6157L33.1402 20.6022C33.1402 20.6022 32.2443 20.5631 32.0365 20.0589C32.0365 20.0589 25.1174 21.7299 22.5692 19.8221C22.5658 19.8238 21.0293 17.5668 21.4858 13.334Z" fill="#FFC3BD"/>
<path id="Vector_24" d="M15.4184 2.91113C15.4184 2.91113 14.7558 3.76282 15.0079 4.50037C15.0775 4.71071 15.2001 4.89958 15.3639 5.04875C15.5277 5.19793 15.7271 5.30239 15.9431 5.35205C15.9431 5.35205 16.0674 6.53249 16.7641 6.56655C17.4608 6.60062 17.2274 3.96552 17.2274 3.96552L15.4184 2.91113Z" fill="#4658BC"/>
<path id="Vector_25" d="M20.7824 23.6323L21.2474 16.0234L24.1329 14.1054C24.1329 14.1054 23.1892 10.7787 21.3836 10.2149C19.5781 9.65112 15.6399 8.35827 13.2518 9.00043C10.8637 9.6426 11.1379 12.46 11.5484 14.55L12.0083 14.659C12.0083 14.659 12.0799 22.8948 12.0833 23.6034L20.7824 23.6323Z" fill="#4658BC"/>
<path id="Vector_26" d="M15.5905 9.4708C16.5358 10.3855 18.464 10.9306 18.9972 10.4758C19.5303 10.021 18.8575 9.60366 18.3567 9.08925C18.0859 8.80649 18.0944 8.27674 18.1574 7.85431C18.1906 7.64145 18.2396 7.43136 18.3039 7.22576C20.0737 7.12867 20.8079 6.30084 20.8811 4.84105C20.9544 3.38127 20.2934 1.68642 20.2934 1.68642L19.0432 0.620117C19.0432 0.620117 17.3398 0.875622 15.9771 1.81247C15.1663 2.36436 15.4065 3.45111 15.7421 4.25339C15.8842 4.5949 16.0552 4.9237 16.2531 5.23624C16.4438 7.23428 15.5905 9.4708 15.5905 9.4708Z" fill="#FFC3BD"/>
<path id="Vector_27" d="M19.8966 5.24261C19.8966 5.24261 19.2153 5.27497 18.9172 4.85254" stroke="#4658BC" stroke-linecap="round" stroke-linejoin="round"/>
<path id="Vector_28" d="M18.8116 3.51926C18.8116 3.64871 18.8899 3.75091 18.9819 3.74921C19.0739 3.7475 19.1403 3.64019 19.1369 3.51074C19.1335 3.38128 19.0585 3.27908 18.9666 3.28078C18.8746 3.28249 18.8064 3.3898 18.8116 3.51926Z" fill="#4658BC"/>
<path id="Vector_29" d="M20.365 3.55978C20.365 3.68924 20.4434 3.79144 20.5354 3.78974C20.6273 3.78803 20.6938 3.68072 20.6904 3.55127C20.687 3.42181 20.612 3.31961 20.52 3.32131C20.428 3.32301 20.3599 3.43203 20.365 3.55978Z" fill="#4658BC"/>
<path id="Vector_30" d="M19.8251 4.61789L19.8949 3.57373L20.394 4.56509C20.3161 4.6313 20.2197 4.67188 20.1179 4.68133C20.0161 4.69078 19.9138 4.66863 19.8251 4.61789Z" fill="#ED847E"/>
<path id="Vector_31" d="M18.8933 2.7016C18.7626 2.6657 18.6235 2.67733 18.5006 2.73441C18.3777 2.79149 18.279 2.89032 18.2222 3.01332" stroke="#4658BC" stroke-linecap="round" stroke-linejoin="round"/>
<path id="Vector_32" d="M20.8453 2.89396C20.8453 2.89396 20.5319 2.55328 20.164 2.64016" stroke="#4658BC" stroke-linecap="round" stroke-linejoin="round"/>
<path id="Vector_33" d="M15.7301 4.25314C17.6788 4.32298 17.9207 2.11372 17.9207 2.11372C18.8848 2.62473 20.2866 1.68788 20.2866 1.68788L19.0364 0.618164C19.0364 0.618164 17.333 0.877075 15.9703 1.81052C15.1544 2.36411 15.3946 3.45427 15.7301 4.25314Z" fill="#4658BC"/>
<path id="Vector_34" d="M20.9135 2.33504C20.9135 2.33504 21.9219 1.66392 21.4773 1.18016C21.0327 0.696405 18.3091 1.61622 16.2735 2.74385C16.2735 2.74385 20.9356 -0.375012 22.2029 0.611236C23.2505 1.42715 20.9271 2.55989 20.997 2.55818L20.9135 2.33504Z" fill="#EA736D"/>
<path id="Vector_35" d="M15.226 2.10697C15.2288 2.46017 15.2958 2.80992 15.4236 3.13921L20.0022 0.924834C19.8125 0.705795 19.5852 0.522363 19.3311 0.383164C19.0601 0.22816 18.7654 0.118818 18.4589 0.0595242C18.1339 -0.00261253 17.8012 -0.0141036 17.4727 0.0254574C15.7983 0.217938 15.2174 1.50568 15.226 2.10697Z" fill="#EA736D"/>
<path id="Vector_36" d="M25.7443 22.4742C26.0423 22.786 29.8971 21.9871 30.5699 22.3448C30.8543 22.4947 30.9787 23.0261 31.2649 23.6087C31.6549 24.4008 32.3482 25.2695 34.1606 25.3274C37.3084 25.4279 36.9285 22.2341 37.1772 21.1967C37.1772 21.1967 40.1581 20.6533 40.3148 20.1304C40.4715 19.6075 40.2791 19.5291 40.2791 19.5291C40.2791 19.5291 36.6015 20.2105 35.8895 19.2804C35.7516 19.1457 35.5898 19.0377 35.4126 18.9619C35.0039 18.7822 34.5643 18.6833 34.118 18.6706C32.8217 18.6025 31.241 18.967 30.7981 19.788C29.8988 21.4624 26.0423 21.086 25.688 21.5255C25.3337 21.9649 25.4462 22.1625 25.7443 22.4742Z" fill="#EA736D"/>
<path id="Vector_37" d="M35.5028 24.6562C35.5028 24.6562 40.6742 31.8104 36.4158 42.8226" stroke="#4658BC" stroke-linecap="round" stroke-linejoin="round"/>
<path id="Vector_38" d="M28.6774 28.3727C28.6774 28.3727 28.6774 28.3863 28.6774 28.4136C28.6774 28.4408 28.6774 28.4561 28.6774 28.4868V28.5038C28.7389 29.1928 28.8528 29.8762 29.0181 30.5479C29.2532 31.5409 29.5649 32.4863 29.8221 33.246C30.9122 36.4739 30.7862 39.9521 30.7862 39.9521C31.1473 39.5025 31.8082 39.1822 32.6343 38.9574C35.6425 38.1313 40.7492 38.5741 40.7492 38.5741C41.7508 35.0601 41.3931 29.5599 40.3966 26.4802C39.4001 23.4006 36.6373 24.0955 36.6373 24.0955C36.6373 24.0955 33.7211 24.1807 33.3549 24.1415C32.6846 24.0602 32.0062 24.074 31.3398 24.1824C29.0879 24.5946 28.5463 26.3746 28.6774 28.3727Z" fill="#EA736D"/>
<path id="Vector_39" d="M6.22538 41.78C11.3355 46.3927 21.1997 46.8765 28.5394 46.3655L32.6514 38.9677L34.3173 35.9715L28.9653 28.7578L28.6825 28.3779C28.6825 28.3779 28.6825 28.3916 28.6825 28.4188C28.6825 28.4461 28.6825 28.4614 28.6825 28.4921V28.5091C28.7558 29.7951 29.2293 40.1158 25.4461 42.647L25.4155 42.6692C24.9036 43 24.3096 43.1817 23.7002 43.1938C16.759 43.3948 16.9532 34.3363 18.7178 32.3962L6.67336 29.9757C6.67336 29.9757 4.29546 35.963 6.22538 41.78Z" fill="#EA736D"/>
<path id="Vector_40" d="M19.6224 30.4321C19.6224 30.4321 20.7517 31.3689 20.1691 32.626C19.5866 33.8831 13.9706 31.4422 11.7596 30.9976C9.54866 30.553 6.99021 30.1186 5.88984 29.8921C4.78946 29.6656 4.88485 26.5092 5.78423 26.2299C6.6836 25.9505 15.4934 27.5074 16.9549 28.3625C17.9199 28.9486 18.8149 29.6429 19.6224 30.4321Z" fill="#4658BC"/>
<path id="Vector_41" d="M16.7947 5.03312C16.9022 4.91741 16.9673 4.76868 16.9793 4.61122C16.9914 4.45375 16.9497 4.29685 16.8612 4.16611C16.5886 3.7573 16.0384 3.10832 15.5104 3.59378C14.7711 4.27513 16.0333 5.51347 16.5563 5.21368C16.6438 5.16502 16.7241 5.10423 16.7947 5.03312Z" fill="#FFC3BD"/>
<path id="Vector_42" opacity="0.2" d="M20.9135 2.33504C20.9135 2.33504 21.9219 1.66392 21.4773 1.18016C21.2797 0.965537 20.6886 1.00982 19.8897 1.23807C19.376 1.37637 18.8728 1.55113 18.384 1.76101C17.6822 2.06591 16.9361 2.45598 16.2735 2.74385C16.2735 2.74385 20.9356 -0.375012 22.2029 0.611236C23.2505 1.42715 21.0719 2.48494 20.9952 2.55648L20.9578 2.41851L20.9135 2.33504Z" fill="black"/>
<path id="Vector_43" d="M20.4349 2.04395C20.4349 2.04395 21.4569 2.21428 20.7517 3.31465L20.4349 2.04395Z" fill="#4658BC"/>
<path id="Vector_44" d="M19.4554 1.373C19.4554 1.373 20.997 0.831331 21.4262 1.13794C21.8554 1.44454 21.4058 2.02879 20.9152 2.33029L20.5217 2.38139L20.2901 1.68301L19.6905 1.60977L19.4554 1.373Z" fill="#4658BC"/>
<path id="Vector_45" opacity="0.3" d="M17.3552 0.539692L17.7248 1.08647L19.3311 0.388093C19.0601 0.233089 18.7654 0.123747 18.4589 0.0644531L17.3552 0.539692Z" fill="white"/>
<path id="Vector_46" opacity="0.1" d="M17.7129 7.07568C17.8191 7.35838 17.9717 7.62145 18.1642 7.85412C18.1974 7.64127 18.2464 7.43118 18.3107 7.22558C18.1042 7.21115 17.9018 7.1604 17.7129 7.07568Z" fill="black"/>
<path id="Vector_47" d="M32.9835 22.0548C33.0517 23.2352 33.5627 24.2011 34.1895 24.4395C34.298 24.4813 34.4142 24.4993 34.5302 24.4923C35.3035 24.448 35.8656 23.288 35.7873 21.9032C35.7089 20.5184 35.0173 19.4316 34.244 19.4759C33.9289 19.4929 33.6512 19.6956 33.4349 20.021C33.1164 20.4877 32.9375 21.2338 32.9835 22.0548Z" fill="#F5F5F5"/>
<path id="Vector_48" d="M32.9835 22.0548C33.0517 23.2353 33.5627 24.2011 34.1895 24.4396C34.9049 24.3987 35.4245 23.3273 35.3512 22.0548C35.278 20.7824 34.6409 19.7723 33.9255 19.8132C33.7412 19.827 33.5667 19.9019 33.4298 20.0261C33.1164 20.4877 32.9375 21.2338 32.9835 22.0548Z" fill="white"/>
<path id="Vector_49" d="M5.37714 38.7874C6.69384 37.8625 11.7886 36.9546 11.7886 36.9546C14.8836 36.9546 17.6005 39.7396 17.9752 43.4376C18.2818 46.4457 16.9532 49.1762 14.8121 50.4214C14.8121 50.4214 14.6332 50.4963 14.3334 50.6139C13.199 51.0618 10.3203 52.1469 8.61864 52.3854" fill="#4658BC"/>
<path id="Vector_50" opacity="0.3" d="M1.9179 45.9329C1.52088 42.0311 3.8765 38.5956 7.17933 38.2596C10.4822 37.9235 13.4815 40.8141 13.8785 44.7159C14.2755 48.6177 11.9199 52.0532 8.61706 52.3893C5.31424 52.7253 2.31492 49.8347 1.9179 45.9329Z" fill="black"/>
<path id="Vector_51" d="M28.3983 45.7059C28.0013 41.8041 30.3569 38.3686 33.6597 38.0325C36.9626 37.6965 39.9619 40.5871 40.3589 44.4889C40.7559 48.3907 38.4003 51.8262 35.0975 52.1622C31.7946 52.4983 28.7953 49.6077 28.3983 45.7059Z" fill="#4658BC"/>
<path id="Vector_52" d="M30.7044 39.3338L33.75 52.121C34.1943 52.193 34.6462 52.2061 35.094 52.1601H35.128C35.7123 52.0102 35.4517 52.1721 36.0376 51.9779C37.5281 51.4856 39.6931 50.6152 39.6931 50.6152C41.9875 49.4995 43.2838 46.786 42.9686 43.6859C42.5871 39.93 39.8924 37.1245 36.7207 37.3545C36.7207 37.3545 35.2149 37.6321 33.6649 38.0358C32.9835 38.2062 32.3022 38.4089 31.7418 38.6201C31.3707 38.819 31.0228 39.0584 30.7044 39.3338Z" fill="#4658BC"/>
<path id="Vector_53" opacity="0.3" d="M28.3981 45.6977C28.7387 49.0619 31.0161 51.6731 33.7534 52.1143C34.1978 52.1863 34.6496 52.1995 35.0974 52.1535H35.1315C35.7551 52.0861 36.3612 51.9055 36.92 51.6203C39.2212 50.4535 40.6776 47.6191 40.3591 44.4849C39.9622 40.5859 36.9694 37.6987 33.6683 38.0292H33.6597C32.9895 38.0969 32.339 38.2954 31.7452 38.6134C31.374 38.8129 31.0261 39.0528 30.7078 39.3288C29.0777 40.746 28.1289 43.1239 28.3981 45.6977Z" fill="black"/>
<path id="Vector_54" d="M29.2276 41.2182C29.3275 41.0589 29.4415 40.909 29.5683 40.7702C30.3297 39.7312 32.0705 39.3428 33.2101 39.4348C34.0837 39.52 34.9224 39.8209 35.651 40.3103C36.4822 40.8486 37.0767 41.673 37.9011 42.2385C39.4648 43.3184 41.8376 43.2878 43.4081 42.1755C43.4967 42.1125 43.5809 42.0437 43.6602 41.9694C43.8203 41.8028 43.927 41.5922 43.9668 41.3647C44.0269 41.0805 44.0051 40.7852 43.9038 40.513C43.5631 39.5557 42.427 38.7142 41.7099 38.2015C40.256 37.1758 38.5459 36.5737 36.7701 36.4624C31.706 36.1132 29.5461 40.4381 29.2276 41.2182Z" fill="#EA736D"/>
<path id="Vector_55" opacity="0.3" d="M29.5785 41.3543C30.6669 39.7838 32.0637 39.3426 33.2032 39.4346C34.0768 39.5198 34.9156 39.8207 35.6442 40.3101C36.4754 40.8484 37.0699 41.6728 37.8943 42.2383C39.458 43.3182 41.8308 43.2876 43.4013 42.1753C43.4899 42.1123 43.5741 42.0434 43.6534 41.9692C43.8134 41.8026 43.9202 41.592 43.96 41.3645C44.0201 41.0803 43.9982 40.785 43.897 40.5128C43.3706 41.1209 41.8376 42.5858 39.7612 41.8755C37.1721 40.9812 36.5401 38.324 33.7722 38.3478C31.5731 38.3734 30.219 40.0767 29.5785 41.3543Z" fill="black"/>
<g id="Group" opacity="0.3">
<path id="Vector_56" d="M40.9689 37.733C40.2303 37.2081 39.3993 36.8273 38.5195 36.6105C37.6388 36.3863 36.7268 36.3115 35.8214 36.389C34.9174 36.476 34.0321 36.7012 33.1965 37.0567L32.8865 37.193L32.5833 37.3446C32.3789 37.44 32.1864 37.5592 31.9888 37.6683C31.7912 37.7773 31.6089 37.9118 31.4199 38.0328C31.2308 38.1537 31.0536 38.2951 30.8731 38.4297C31.616 37.9319 32.4089 37.5135 33.2391 37.1811C34.0676 36.8487 34.9406 36.6404 35.8299 36.5628C36.7174 36.4779 37.6127 36.5354 38.482 36.7331C38.9185 36.8299 39.3463 36.962 39.7612 37.1283C40.1824 37.2904 40.5868 37.4929 40.9689 37.733Z" fill="black"/>
</g>
<g id="Group_2" opacity="0.3">
<path id="Vector_57" d="M35.4534 36.5149C35.6658 35.8045 35.7933 35.0715 35.8333 34.3312C35.8895 33.5936 35.9014 32.8526 35.8861 32.1168C35.8708 31.3809 35.8197 30.6383 35.7515 29.9024L35.6272 28.802C35.5727 28.4358 35.525 28.0696 35.4568 27.7051L35.6118 29.9195L35.6732 31.0232C35.6834 31.3912 35.7055 31.7591 35.7072 32.127C35.7362 32.8629 35.7226 33.5987 35.6953 34.3414C35.6834 34.7093 35.6544 35.0755 35.617 35.4418C35.587 35.8028 35.5324 36.1613 35.4534 36.5149Z" fill="black"/>
</g>
<path id="Vector_58" opacity="0.3" d="M25.4547 42.6317C29.0113 40.3441 29.1527 34.442 29.0317 30.5481C29.0096 29.8787 28.9823 29.2706 28.9619 28.7476C28.9246 28.2242 28.9246 27.6988 28.9619 27.1754C29.3213 24.5011 31.3654 24.1792 31.3654 24.1792H31.3568C29.0931 24.5948 28.5514 26.3748 28.6826 28.3729C28.6826 28.3729 28.6826 28.3865 28.6826 28.4138C28.6826 28.441 28.6826 28.4563 28.6826 28.487V28.504C28.7592 29.7901 29.2327 40.1108 25.4547 42.6317Z" fill="black"/>
<path id="Vector_59" opacity="0.2" d="M25.7443 22.4742C26.0423 22.7859 29.8971 21.9871 30.5699 22.3448C30.8543 22.4947 30.9787 23.0261 31.2649 23.6087C32.0688 24.8862 33.1999 25.0872 33.2697 25.0974C31.9206 24.0754 31.5442 21.6157 32.2136 20.0606C32.8831 18.5054 35.2797 18.9091 35.416 18.9551C35.0073 18.7754 34.5677 18.6765 34.1214 18.6638C32.8251 18.5957 31.2444 18.9602 30.8015 19.7812C29.9022 21.4556 26.0457 21.0792 25.6914 21.5186C25.3371 21.9581 25.4462 22.1625 25.7443 22.4742Z" fill="black"/>
<path id="Vector_60" d="M28.7626 20.9873C28.9969 21.4198 29.0904 21.9146 29.03 22.4028L25.7647 22.7707C25.5978 22.5775 25.4744 22.3507 25.403 22.1055C25.3315 21.8604 25.3137 21.6027 25.3508 21.3501C25.3508 21.3501 28.5855 21.0248 28.7626 20.9873Z" fill="#4658BC"/>
<path id="Vector_61" d="M38.6778 20.8663C38.6778 20.8663 39.0032 20.1747 38.6131 19.737C39.4852 19.6586 40.0252 19.5666 40.5873 19.4849C40.6708 19.7387 40.7117 19.9822 40.417 20.3689C40.1223 20.7556 38.6778 20.8663 38.6778 20.8663Z" fill="#4658BC"/>
<path id="Vector_62" d="M40.4919 25.1943C41.0575 26.1159 41.5412 27.591 41.5838 29.9467" stroke="#EA736D" stroke-linecap="round" stroke-linejoin="round"/>
<path id="Vector_63" d="M38.6302 23.6748C39.0416 23.7702 39.4199 23.9744 39.7255 24.2659" stroke="#EA736D" stroke-linecap="round" stroke-linejoin="round"/>
<path id="Vector_64" d="M13.2279 14.7954L15.3776 15.0577C15.3776 15.0577 15.7523 19.0078 16.0998 19.776C16.0998 19.776 22.7105 20.6856 25.4206 20.6056L26.7952 21.539L26.8429 23.164L25.4955 23.2032L25.0612 22.1812C25.0612 22.1812 24.1516 22.142 23.9421 21.6293C23.9421 21.6293 16.9174 23.3327 14.33 21.3908C14.3317 21.384 12.7697 19.093 13.2279 14.7954Z" fill="#FFC3BD"/>
<path id="Vector_65" opacity="0.2" d="M30.7317 45.1869C30.793 47.3297 32.1966 49.0263 33.8676 48.9786C34.0922 48.9718 34.3147 48.9334 34.5285 48.8644C35.8673 48.4386 36.8314 46.8596 36.7786 45.0114C36.7258 43.2229 35.7396 41.7444 34.4433 41.3339C34.1843 41.2506 33.913 41.212 33.641 41.2197C31.97 41.2691 30.6687 43.0508 30.7317 45.1869Z" fill="#FAFAFA"/>
<path id="Vector_66" d="M32.2698 45.1868C32.3226 47.0162 33.2918 48.5203 34.5285 48.8694C35.8673 48.4436 36.8314 46.8646 36.7786 45.0164C36.7258 43.2279 35.7396 41.7494 34.4433 41.3389C33.1556 41.6881 32.217 43.2926 32.2698 45.1868Z" fill="#4658BC"/>
<path id="Vector_67" opacity="0.2" d="M4.48626 45.3573C4.54928 47.5001 5.95285 49.1984 7.62215 49.149C7.84681 49.1432 8.06945 49.1047 8.28305 49.0348C9.6236 48.609 10.5877 47.0317 10.5332 45.1818C10.4821 43.395 9.49585 41.9148 8.19959 41.5043C7.94058 41.421 7.66927 41.3824 7.39731 41.3901C5.72631 41.4395 4.42494 43.2179 4.48626 45.3573Z" fill="#FAFAFA"/>
<path id="Vector_68" d="M6.02439 45.3569C6.0789 47.1846 7.04641 48.6887 8.28305 49.0379C9.6236 48.6121 10.5877 47.0347 10.5332 45.1849C10.4821 43.3981 9.49585 41.9178 8.19959 41.5073C6.91014 41.8565 5.96989 43.4611 6.02439 45.3569Z" fill="#4658BC"/>
<path id="Vector_69" d="M1.85287 39.7124C1.82391 41.8195 5.03135 43.2145 10.3987 44.0935C11.8454 44.3479 13.324 44.3651 14.7763 44.1446C17.161 43.7511 18.3261 42.7427 18.3261 42.7427C18.3261 42.7427 17.7197 35.4608 11.7188 34.5376C7.63068 33.9108 4.55441 35.5596 2.99413 37.3362C2.25998 38.1709 1.86139 39.0379 1.85287 39.7124Z" fill="#EA736D"/>
<path id="Vector_70" opacity="0.3" d="M1.85282 39.7123C1.82386 41.8193 5.0313 43.2144 10.3986 44.0933C11.8454 44.3477 13.3239 44.365 14.7762 44.1444C14.519 42.1668 13.3642 36.9801 8.34434 36.4418C6.06695 36.1965 4.30907 36.6564 2.99408 37.3361C2.25993 38.1707 1.86134 39.0377 1.85282 39.7123Z" fill="black"/>
<g id="Group_3" opacity="0.3">
<path id="Vector_71" d="M17.9786 42.775C17.8681 41.7838 17.6317 40.8107 17.2751 39.8793C16.9244 38.9383 16.4402 38.0526 15.8374 37.2493C15.5329 36.8501 15.1906 36.481 14.8154 36.1472C14.4436 35.8081 14.0338 35.5131 13.5941 35.2683C12.7192 34.7749 11.7497 34.4725 10.7495 34.3809C11.2396 34.463 11.7218 34.5872 12.1905 34.7522C12.4273 34.8237 12.6505 34.9345 12.8719 35.0281C13.0941 35.1345 13.3107 35.2522 13.5209 35.3807C13.7355 35.5034 13.9331 35.6516 14.1358 35.7895C14.3385 35.9275 14.5259 36.091 14.7047 36.2631C15.0684 36.5936 15.3998 36.9581 15.6944 37.3515C16.2927 38.1393 16.7804 39.0053 17.1439 39.9253C17.3327 40.3836 17.4953 40.8522 17.6311 41.3289C17.7756 41.8036 17.8917 42.2865 17.9786 42.775Z" fill="black"/>
</g>
<path id="Vector_72" d="M26.0321 40.3697L25.6778 41.5723L21.9628 41.2623L21.9134 39.5811L26.0321 40.3697Z" fill="#EA736D"/>
</g>
</svg>
