<svg width="22" height="23" viewBox="0 0 22 23" fill="none" xmlns="http://www.w3.org/2000/svg">
<path id="Vector" d="M20.6002 9.7H11.2002V13.4H16.7002C16.6002 14.3 16.0002 15.7 14.7002 16.6C13.9002 17.2 12.7002 17.6 11.2002 17.6C8.6002 17.6 6.3002 15.9 5.5002 13.4C5.3002 12.8 5.2002 12.1 5.2002 11.4C5.2002 10.7 5.3002 10 5.5002 9.4C5.6002 9.2 5.6002 9 5.7002 8.9C6.6002 6.8 8.7002 5.3 11.2002 5.3C13.1002 5.3 14.3002 6.1 15.1002 6.8L17.9002 4C16.2002 2.5 13.9002 1.5 11.2002 1.5C7.3002 1.5 3.9002 3.7 2.3002 7C1.6002 8.4 1.2002 9.9 1.2002 11.5C1.2002 13.1 1.6002 14.6 2.3002 16C3.9002 19.3 7.3002 21.5 11.2002 21.5C13.9002 21.5 16.2002 20.6 17.8002 19.1C19.7002 17.4 20.8002 14.8 20.8002 11.7C20.8002 10.9 20.7002 10.3 20.6002 9.7Z" stroke="white" stroke-width="1.5" stroke-miterlimit="10" stroke-linecap="round" stroke-linejoin="round"/>
</svg>
