<svg width="34" height="32" viewBox="0 0 34 32" fill="none" xmlns="http://www.w3.org/2000/svg">
<path id="Vector" d="M28.6667 0.333374H5.33334C2.57668 0.333374 0.333344 2.57671 0.333344 5.33337V10.0517C0.333344 11.8067 0.97001 13.4017 2.00001 14.6284V30.3334C2.00001 30.7754 2.1756 31.1993 2.48817 31.5119C2.80073 31.8244 3.22465 32 3.66668 32H17C17.442 32 17.866 31.8244 18.1785 31.5119C18.4911 31.1993 18.6667 30.7754 18.6667 30.3334V22H25.3333V30.3334C25.3333 30.7754 25.5089 31.1993 25.8215 31.5119C26.1341 31.8244 26.558 32 27 32H30.3333C30.7754 32 31.1993 31.8244 31.5119 31.5119C31.8244 31.1993 32 30.7754 32 30.3334V14.6267C33.03 13.4017 33.6667 11.8067 33.6667 10.05V5.33337C33.6667 2.57671 31.4233 0.333374 28.6667 0.333374ZM30.3333 5.33337V10.0517C30.3333 11.9517 28.9183 13.5717 27.1817 13.6634L27 13.6667C25.1617 13.6667 23.6667 12.1717 23.6667 10.3334V3.66671H28.6667C29.5867 3.66671 30.3333 4.41504 30.3333 5.33337ZM13.6667 10.3334V3.66671H20.3333V10.3334C20.3333 12.1717 18.8383 13.6667 17 13.6667C15.1617 13.6667 13.6667 12.1717 13.6667 10.3334ZM3.66668 5.33337C3.66668 4.41504 4.41334 3.66671 5.33334 3.66671H10.3333V10.3334C10.3333 12.1717 8.83834 13.6667 7.00001 13.6667L6.81834 13.6617C5.08168 13.5717 3.66668 11.9517 3.66668 10.0517V5.33337ZM13.6667 23.6667H7.00001V18.6667H13.6667V23.6667Z" fill="url(#paint0_linear_612_5528)"/>
<defs>
<linearGradient id="paint0_linear_612_5528" x1="17" y1="0.333374" x2="17" y2="32" gradientUnits="userSpaceOnUse">
<stop stop-color="#EA9769"/>
<stop offset="1" stop-color="#EA6969"/>
</linearGradient>
</defs>
</svg>
